<mxfile host="app.diagrams.net" modified="2024-04-29T17:58:52.987Z" agent="Mozilla/5.0 (Windows NT 10.0; Win64; x64) AppleWebKit/537.36 (KHTML, like Gecko) Chrome/124.0.0.0 Safari/537.36" etag="y_FxPAjkLm8YOZoJS4lf" version="24.3.1" type="github">
  <diagram name="Page-1" id="BHeU60PpYMf_gdk7w9j4">
    <mxGraphModel dx="934" dy="534" grid="1" gridSize="10" guides="1" tooltips="1" connect="1" arrows="1" fold="1" page="1" pageScale="1" pageWidth="850" pageHeight="1100" math="0" shadow="0">
      <root>
        <mxCell id="0" />
        <mxCell id="1" parent="0" />
        <mxCell id="Mik2LnKahQzmvqd0b0eq-1" value="" style="ellipse;whiteSpace=wrap;html=1;aspect=fixed;fillColor=#000000;" vertex="1" parent="1">
          <mxGeometry x="390" y="70" width="20" height="20" as="geometry" />
        </mxCell>
        <mxCell id="Mik2LnKahQzmvqd0b0eq-7" style="edgeStyle=orthogonalEdgeStyle;rounded=0;orthogonalLoop=1;jettySize=auto;html=1;entryX=0;entryY=0.5;entryDx=0;entryDy=0;" edge="1" parent="1" source="Mik2LnKahQzmvqd0b0eq-2" target="Mik2LnKahQzmvqd0b0eq-6">
          <mxGeometry relative="1" as="geometry" />
        </mxCell>
        <mxCell id="Mik2LnKahQzmvqd0b0eq-2" value="Menerima Denda Keterlambatan" style="rounded=1;whiteSpace=wrap;html=1;" vertex="1" parent="1">
          <mxGeometry x="230" y="120" width="120" height="60" as="geometry" />
        </mxCell>
        <mxCell id="Mik2LnKahQzmvqd0b0eq-8" style="edgeStyle=orthogonalEdgeStyle;rounded=0;orthogonalLoop=1;jettySize=auto;html=1;entryX=1;entryY=0.5;entryDx=0;entryDy=0;" edge="1" parent="1" source="Mik2LnKahQzmvqd0b0eq-3" target="Mik2LnKahQzmvqd0b0eq-6">
          <mxGeometry relative="1" as="geometry" />
        </mxCell>
        <mxCell id="Mik2LnKahQzmvqd0b0eq-3" value="Menerima Denda Kondisi Buku" style="rounded=1;whiteSpace=wrap;html=1;" vertex="1" parent="1">
          <mxGeometry x="450" y="120" width="120" height="60" as="geometry" />
        </mxCell>
        <mxCell id="Mik2LnKahQzmvqd0b0eq-4" style="edgeStyle=orthogonalEdgeStyle;rounded=0;orthogonalLoop=1;jettySize=auto;html=1;" edge="1" parent="1" source="Mik2LnKahQzmvqd0b0eq-1">
          <mxGeometry relative="1" as="geometry">
            <mxPoint x="290" y="120" as="targetPoint" />
            <Array as="points">
              <mxPoint x="290" y="80" />
              <mxPoint x="290" y="117" />
            </Array>
          </mxGeometry>
        </mxCell>
        <mxCell id="Mik2LnKahQzmvqd0b0eq-5" style="edgeStyle=orthogonalEdgeStyle;rounded=0;orthogonalLoop=1;jettySize=auto;html=1;entryX=0.5;entryY=0;entryDx=0;entryDy=0;" edge="1" parent="1" source="Mik2LnKahQzmvqd0b0eq-1" target="Mik2LnKahQzmvqd0b0eq-3">
          <mxGeometry relative="1" as="geometry">
            <Array as="points">
              <mxPoint x="510" y="80" />
            </Array>
          </mxGeometry>
        </mxCell>
        <mxCell id="Mik2LnKahQzmvqd0b0eq-10" style="edgeStyle=orthogonalEdgeStyle;rounded=0;orthogonalLoop=1;jettySize=auto;html=1;entryX=0.5;entryY=0;entryDx=0;entryDy=0;" edge="1" parent="1" source="Mik2LnKahQzmvqd0b0eq-6" target="Mik2LnKahQzmvqd0b0eq-9">
          <mxGeometry relative="1" as="geometry" />
        </mxCell>
        <mxCell id="Mik2LnKahQzmvqd0b0eq-6" value="Menghitung Total Denda" style="rounded=1;whiteSpace=wrap;html=1;" vertex="1" parent="1">
          <mxGeometry x="340" y="210" width="120" height="60" as="geometry" />
        </mxCell>
        <mxCell id="Mik2LnKahQzmvqd0b0eq-11" style="edgeStyle=orthogonalEdgeStyle;rounded=0;orthogonalLoop=1;jettySize=auto;html=1;entryX=0.5;entryY=0;entryDx=0;entryDy=0;" edge="1" parent="1" source="Mik2LnKahQzmvqd0b0eq-9" target="Mik2LnKahQzmvqd0b0eq-14">
          <mxGeometry relative="1" as="geometry">
            <mxPoint x="400" y="410" as="targetPoint" />
          </mxGeometry>
        </mxCell>
        <mxCell id="Mik2LnKahQzmvqd0b0eq-9" value="Menampilkan Denda" style="rounded=1;whiteSpace=wrap;html=1;" vertex="1" parent="1">
          <mxGeometry x="340" y="310" width="120" height="60" as="geometry" />
        </mxCell>
        <mxCell id="Mik2LnKahQzmvqd0b0eq-12" value="" style="group" vertex="1" connectable="0" parent="1">
          <mxGeometry x="360" y="410" width="80" height="60" as="geometry" />
        </mxCell>
        <mxCell id="Mik2LnKahQzmvqd0b0eq-13" value="" style="group" vertex="1" connectable="0" parent="Mik2LnKahQzmvqd0b0eq-12">
          <mxGeometry x="25" width="30" height="30" as="geometry" />
        </mxCell>
        <mxCell id="Mik2LnKahQzmvqd0b0eq-14" value="" style="ellipse;whiteSpace=wrap;html=1;aspect=fixed;fillColor=#000000;shadow=0;strokeColor=#ffffff;strokeWidth=0;" vertex="1" parent="Mik2LnKahQzmvqd0b0eq-13">
          <mxGeometry width="30" height="30" as="geometry" />
        </mxCell>
        <mxCell id="Mik2LnKahQzmvqd0b0eq-15" value="" style="ellipse;whiteSpace=wrap;html=1;aspect=fixed;fillColor=#000000;shadow=0;strokeColor=#ffffff;strokeWidth=2;" vertex="1" parent="Mik2LnKahQzmvqd0b0eq-13">
          <mxGeometry x="5" y="5" width="20" height="20" as="geometry" />
        </mxCell>
        <mxCell id="Mik2LnKahQzmvqd0b0eq-16" value="Keluar Fungsi" style="text;html=1;align=center;verticalAlign=middle;whiteSpace=wrap;rounded=0;" vertex="1" parent="Mik2LnKahQzmvqd0b0eq-12">
          <mxGeometry y="30" width="80" height="30" as="geometry" />
        </mxCell>
      </root>
    </mxGraphModel>
  </diagram>
</mxfile>
